<?xml version="1.0" encoding="UTF-8"?>
<svg id="svg_canvas" data-noselect="" viewBox="0 0 180 125" width="180" height="125" preserveAspectRatio="none"
     version="1.1" xmlns="http://www.w3.org/2000/svg" xmlns:xlink="http://www.w3.org/1999/xlink">
    <g id="shape_AjwXCJgVSQ"
       transform="translate(0,0) rotate(0,80,49.967828510696) scale(1,1)" filter=""
       style="cursor: move; opacity: 1;">
        <g>
            <svg version="1.1" id="图层_1" xmlns="http://www.w3.org/2000/svg" xmlns:xlink="http://www.w3.org/1999/xlink"
                 x="0px" y="0px" width="160" height="99.935657021393"
                 viewBox="10.189589500427246 43.904483795166016 179.6204071044922 112.19052124023438"
                 enable-background="new 0 0 200 200" xml:space="preserve" preserveAspectRatio="none"
                 class="style-removed" data-parent="shape_AjwXCJgVSQ">
                <g>
                    <path fill="#246fdd" d="M106.321,89.494c0,0,21.712-23.689,49.111-19.623c20.564,3.052,29.926,14.137,34.378,20.14H176.37
                        c0,0-9.943-9.084-23.78-10.899C140.013,77.462,129.843,78.121,106.321,89.494z" stroke-width="0"></path>
                    <path fill="#246fdd" d="M147.161,71.716c0,0-5.801-22.574-33.028-27.054S61.92,55.92,43.31,82.687l22.517-4.021
                        c0,0,19.354-29.195,47.101-24.24c16.083,2.872,24.699,10.109,27.916,18.496L147.161,71.716z"
                          stroke-width="0"></path>
                    <path fill="#24dd7f" d="M62.38,83.893c0,0-46.698,7.782-51.696,38.255c-4.136,25.216,18.611,33.947,33.43,33.947
                        c18.036,0,112.698,0,112.698,0l1.206-5.687c0,0-71.397,0.324-101.38,0c-15.968-0.172-28.147-4.996-28.147-22.574
                        c0-14.992,12.867-26.502,29.065-32.034L62.38,83.893z" stroke-width="0"></path>
                </g>
            </svg>
        </g>
    </g>
    <g id="shape_KGTd7uuhMV"
       transform="translate(27.24821472167997,30.344476459920024) rotate(0,129.63989257812,92.274169921875) scale(1,1)"
       filter="" style="cursor: move; opacity: 1;">
        <g>
            <svg xmlns="http://www.w3.org/2000/svg" version="1.1" xmlns:xlink="http://www.w3.org/1999/xlink" width="232"
                 height="176.89453125" viewBox="0 0 232 176.89453125" data-parent="shape_KGTd7uuhMV">
                <g data-width="131.88603515625" transform="translate(25, 0)">
                    <path
                        d="M9.77-2.56Q13.96-2.56 16.67-5.79L16.67-5.79L15.25-6.99Q13.10-4.43 9.77-4.43L9.77-4.43Q6.80-4.43 4.70-6.53L4.70-6.53Q2.60-8.63 2.60-11.60L2.60-11.60Q2.60-14.56 4.70-16.66L4.70-16.66Q6.80-18.75 9.77-18.75L9.77-18.75Q13.10-18.75 15.25-16.20L15.25-16.20L16.67-17.40Q13.96-20.63 9.77-20.63L9.77-20.63Q6.02-20.63 3.38-17.98L3.38-17.98Q0.73-15.33 0.73-11.60L0.73-11.60Q0.73-7.85 3.38-5.21L3.38-5.21Q6.02-2.56 9.77-2.56L9.77-2.56Z"
                        transform="translate(0 95.947265625) skewX(0)" fill="rgb(36, 111, 221)"
                        stroke="rgb(36, 111, 221)" stroke-width="0.042" data-glyph-w="17.4072265625"
                        data-glyph-h="26.0498046875" data-glyph-ascender="20.947265625"
                        data-glyph-descender="-5.1025390625"></path>
                    <path
                        d="M9.77-20.63Q13.50-20.63 16.15-17.98L16.15-17.98Q18.79-15.33 18.79-11.60L18.79-11.60Q18.79-7.85 16.15-5.21L16.15-5.21Q13.50-2.56 9.77-2.56L9.77-2.56Q6.02-2.56 3.38-5.21L3.38-5.21Q0.73-7.85 0.73-11.60L0.73-11.60Q0.73-15.33 3.38-17.98L3.38-17.98Q6.02-20.63 9.77-20.63L9.77-20.63ZM9.77-18.75L9.77-18.75Q6.80-18.75 4.70-16.66L4.70-16.66Q2.60-14.56 2.60-11.60L2.60-11.60Q2.60-8.63 4.70-6.53L4.70-6.53Q6.80-4.43 9.77-4.43L9.77-4.43Q12.73-4.43 14.83-6.53L14.83-6.53Q16.92-8.63 16.92-11.60L16.92-11.60Q16.92-14.56 14.83-16.66L14.83-16.66Q12.73-18.75 9.77-18.75Z"
                        transform="translate(17.4072265625 95.947265625) skewX(0)" fill="rgb(36, 111, 221)"
                        stroke="rgb(36, 111, 221)" stroke-width="0.042" data-glyph-w="19.51904296875"
                        data-glyph-h="26.0498046875" data-glyph-ascender="20.947265625"
                        data-glyph-descender="-5.1025390625"></path>
                    <path
                        d="M8.39-2.88L1.22-2.88L1.22-20.31L8.39-20.31Q11.61-20.31 13.89-17.76L13.89-17.76Q16.16-15.21 16.16-11.60L16.16-11.60Q16.16-7.98 13.89-5.43L13.89-5.43Q11.61-2.88 8.39-2.88L8.39-2.88ZM8.39-18.44L3.09-18.44L3.09-4.75L8.39-4.75Q10.84-4.75 12.56-6.75L12.56-6.75Q14.29-8.75 14.29-11.60L14.29-11.60Q14.29-14.43 12.56-16.44L12.56-16.44Q10.84-18.44 8.39-18.44L8.39-18.44Z"
                        transform="translate(36.92626953125 95.947265625) skewX(0)" fill="rgb(36, 111, 221)"
                        stroke="rgb(36, 111, 221)" stroke-width="0.042" data-glyph-w="16.89453125"
                        data-glyph-h="26.0498046875" data-glyph-ascender="20.947265625"
                        data-glyph-descender="-5.1025390625"></path>
                    <path
                        d="M3.09-18.44L3.09-12.52L13.67-12.52L13.67-10.66L3.09-10.66L3.09-4.75L13.67-4.75L13.67-2.88L1.22-2.88L1.22-20.31L13.67-20.31L13.67-18.44L3.09-18.44Z"
                        transform="translate(53.82080078125 95.947265625) skewX(0)" fill="rgb(36, 111, 221)"
                        stroke="rgb(36, 111, 221)" stroke-width="0.042" data-glyph-w="14.404296875"
                        data-glyph-h="26.0498046875" data-glyph-ascender="20.947265625"
                        data-glyph-descender="-5.1025390625"></path>
                </g>
            </svg>
        </g>
    </g>
    <g id="shape_W7YDZ35Q8m"
       transform="translate(-17.471908569339973,-136.7972562061) rotate(0,206.27399295228,203.822) scale(1,1)"
       filter="" style="cursor: move; opacity: 1;">
        <g>
            <svg xmlns="http://www.w3.org/2000/svg" version="1.1" xmlns:xlink="http://www.w3.org/1999/xlink" width="544"
                 height="407.644" viewBox="0 0 544 407.644" data-parent="shape_W7YDZ35Q8m">
                <g data-width="311.17" transform="translate(58, 0)">
                    <path
                        d="M3.48-16.94L3.48-38.69L11.66-38.69L11.66-16.94Q11.83-12.82 12.01-11.48L12.01-11.48Q12.41-8.82 14.56-7.86Q16.70-6.90 22.10-6.90L22.10-6.90L29.99-6.90L29.99 0L21.23 0Q15.02 0 12.24-0.70L12.24-0.70Q5.86-2.55 4.12-8.82L4.12-8.82Q3.48-11.25 3.48-16.94L3.48-16.94Z"
                        transform="translate(0 223.822) skewX(-14)" fill="#246fdd" stroke="#246fdd" stroke-width="0.097"
                        data-glyph-w="30.856" data-glyph-h="58" data-glyph-ascender="49.822"
                        data-glyph-descender="-8.178"></path>
                    <path
                        d="M20.94-38.92L20.94-38.92Q26.74-38.92 31.15-36.95L31.15-36.95Q36.31-34.57 38.40-29L38.40-29Q40.02-24.65 40.02-18.79L40.02-18.79Q40.02-12.88 38.05-8.53L38.05-8.53Q35.55-3.36 30.39-1.28L30.39-1.28Q26.56 0.23 21.58 0.23L21.58 0.23Q15.02 0.23 10.21-2.20L10.21-2.20Q6.15-4.23 4.00-8.58Q1.86-12.93 1.86-19.14L1.86-19.14Q1.86-30.22 7.37-34.92L7.37-34.92Q12.01-38.86 20.94-38.92ZM21.00-32.42L21.00-32.42Q15.31-32.42 12.88-28.71L12.88-28.71Q10.90-25.81 10.90-19.37L10.90-19.37Q10.90-12.59 13.34-9.40L13.34-9.40Q15.78-6.26 21.05-6.26L21.05-6.26Q26.16-6.26 28.57-9.45Q30.97-12.64 30.97-19.31L30.97-19.31Q30.97-25.40 29-28.59L29-28.59Q26.74-32.36 21.00-32.42Z"
                        transform="translate(30.856 223.822) skewX(-14)" fill="#246fdd" stroke="#246fdd"
                        stroke-width="0.097" data-glyph-w="41.876000000000005" data-glyph-h="58"
                        data-glyph-ascender="49.822" data-glyph-descender="-8.178"></path>
                    <path
                        d="M0.75-38.69L9.28-38.69L17.98-9.57L26.10-38.69L35.26-38.69L43.38-9.57L52.08-38.69L60.55-38.69L48.08 0L38.69 0L30.68-27.90L22.68 0L13.28 0L0.75-38.69Z"
                        transform="translate(72.732 223.822) skewX(-14)" fill="#246fdd" stroke="#246fdd"
                        stroke-width="0.097" data-glyph-w="61.306000000000004" data-glyph-h="58"
                        data-glyph-ascender="49.822" data-glyph-descender="-8.178"></path>
                    <path d="" transform="translate(134.038 223.822) skewX(-14)" fill="#246fdd" stroke="#246fdd"
                          stroke-width="0.097" data-glyph-w="23.084" data-glyph-h="58" data-glyph-ascender="51.04"
                          data-glyph-descender="-6.96"></path>
                </g>
            </svg>
        </g>
    </g>  <!---->
</svg>
